<svg width="50" height="43" viewBox="0 0 50 43" fill="none" xmlns="http://www.w3.org/2000/svg">
<path fill-rule="evenodd" clip-rule="evenodd" d="M50 12.3454L34.6262 21.9137L26.1592 21.4307L19.0301 23.696L0 18.7645L7.04695 16.3495L0.0241496 11.0993L15.3594 1.43934L22.2952 6.50599L27.444 0L47.4111 5.34679L42.0643 11.9011L50 12.3454ZM22.7782 8.80506L11.8383 15.567L26.2558 19.4987L38.3308 12.3261L22.7782 8.80506ZM10.6115 23.8022L10.6743 34.0563L27.3957 38.297L27.2266 23.923L34.8966 24.6475L42.8033 19.9527L43.1704 32.8439L28.8592 42.6826L7.12423 36.7949L7.31743 22.8266L10.6115 23.8022Z" fill="white"/>
</svg>
