<svg width="50" height="57" viewBox="0 0 50 57" fill="none" xmlns="http://www.w3.org/2000/svg">
<path d="M49.0062 19.9622H0.993752C0.44507 19.9622 0 20.4057 0 20.9543V55.4264C0 55.9743 0.44507 56.4186 0.993752 56.4186H49.0055C49.5573 56.4186 50 55.9743 50 55.4264V20.9543C50 20.4057 49.5573 19.9622 49.0062 19.9622ZM16.6583 49.1507C15.0013 49.1507 13.1707 48.8179 11.7578 48.259C11.5451 48.175 11.4148 47.9568 11.447 47.7299L11.9101 44.3593C11.9289 44.2102 12.0169 44.0783 12.1456 44.0014C12.279 43.9237 12.4376 43.9103 12.5757 43.9629C14.1292 44.5493 15.4353 44.7895 17.0845 44.7895C18.813 44.7895 20.0171 43.9731 20.0171 42.8051C20.0171 41.3553 19.3177 40.5798 15.4942 40.3615C15.2312 40.3466 15.0272 40.1292 15.0272 39.8662V36.4964C15.0272 36.2358 15.2273 36.0192 15.4864 36.0003C18.7792 35.768 19.1599 34.7554 19.1599 34.0144C19.1599 33.5128 19.1599 32.6729 16.9307 32.6729C15.7383 32.6729 14.4722 32.9979 13.1692 33.6353C13.0247 33.7036 12.8568 33.7004 12.7186 33.6282C12.5765 33.5529 12.4808 33.4147 12.4596 33.2577L11.998 29.8887C11.9666 29.6728 12.0836 29.4625 12.2798 29.3698C13.7971 28.6681 15.7116 28.3125 17.9739 28.3125C22.0062 28.3125 24.7158 30.1854 24.7158 32.9728C24.7158 35.0631 23.635 36.6016 21.4175 37.6472C23.321 38.3811 25.2661 39.7132 25.2661 42.5312C25.2661 46.5517 21.8892 49.1507 16.6583 49.1507ZM37.6307 48.3477C37.6307 48.6216 37.4078 48.8438 37.1338 48.8438H33.0309C32.7553 48.8438 32.534 48.6216 32.534 48.3477V34.8292L29.8377 35.8575C29.6932 35.9109 29.537 35.8983 29.4075 35.8198C29.2764 35.7437 29.1885 35.611 29.1697 35.4611L28.7105 32.0905C28.6814 31.8793 28.7905 31.6729 28.9821 31.5795L34.8637 28.6704C34.9328 28.6375 35.0082 28.6194 35.0851 28.6194H37.1346C37.4086 28.6194 37.6315 28.8416 37.6315 29.1163L37.6307 48.3477Z" fill="white"/>
<path d="M49.0062 4.44043H43.8891V6.83532C43.8891 9.37465 42.4409 12.0867 38.3709 12.0867C34.3009 12.0867 32.8519 9.37465 32.8519 6.83532V4.44043H17.2133V6.83532C17.2133 9.37465 15.765 12.0867 11.695 12.0867C7.62426 12.0867 6.17209 9.37465 6.17209 6.83532V4.44043H0.993752C0.44507 4.44043 0 4.88393 0 5.43261V15.5263C0 16.0758 0.44507 16.5201 0.993752 16.5201H49.0055C49.5573 16.5201 50 16.0758 50 15.5263V5.43261C50 4.88393 49.5573 4.44043 49.0062 4.44043Z" fill="white"/>
<path d="M11.6961 8.88019C13.3406 8.88019 14.0086 8.28755 14.0086 6.8346V4.44049V2.04638C14.0086 0.591856 13.3406 0 11.6961 0C10.0469 0 9.37891 0.592641 9.37891 2.04638V4.44049V6.83538C9.37891 8.28833 10.0469 8.88019 11.6961 8.88019Z" fill="white"/>
<path d="M38.3691 8.88019C40.0136 8.88019 40.6816 8.28755 40.6816 6.8346V4.44049V2.04638C40.6816 0.591856 40.0136 0 38.3691 0C36.7199 0 36.0566 0.592641 36.0566 2.04638V4.44049V6.83538C36.0559 8.28833 36.7199 8.88019 38.3691 8.88019Z" fill="white"/>
</svg>
