<svg width="30" height="30" viewBox="0 0 30 30" fill="none" xmlns="http://www.w3.org/2000/svg">
<g clip-path="url(#clip0_1367_4967)">
<path d="M0.991186 1.00628C0.429357 1.0554 0 1.52357 0 2.08579V26.8983C0 27.426 0.376473 27.8733 0.896413 27.9663L12.245 29.9837C12.5624 30.0407 12.887 29.955 13.1331 29.7476C13.3802 29.5412 13.5221 29.2376 13.5221 28.9168V1.08414C13.5221 0.777947 13.3959 0.491088 13.1703 0.284696C12.9435 0.0777817 12.6456 -0.023063 12.3398 0.00410757L0.991186 1.00628ZM10.547 16.4831C10.0799 16.4831 9.70085 15.8184 9.70085 15.0002C9.70085 14.1804 10.0799 13.5178 10.547 13.5178C11.0146 13.5178 11.3937 14.1809 11.3937 15.0002C11.3937 15.8179 11.0146 16.4831 10.547 16.4831Z" fill="white"/>
<path d="M29.9993 14.4194L21.1295 7.84668V11.2566H14.2383V17.5408H21.1295V20.9497L29.9993 14.4194Z" fill="white"/>
<path d="M9.70117 14.9997C9.70117 15.818 10.0803 16.4826 10.5473 16.4826C11.0149 16.4826 11.394 15.818 11.394 14.9997C11.394 14.1799 11.0149 13.5173 10.5473 13.5173C10.0803 13.5173 9.70117 14.1799 9.70117 14.9997Z" fill="#A1E8B9"/>
<path d="M20.3571 10.2898V1.80734C20.3571 1.58475 20.2676 1.36686 20.1095 1.20958C19.9529 1.05231 19.7346 0.961914 19.512 0.961914H14.2383V2.65172H18.6654V10.2903H20.3571V10.2898Z" fill="white"/>
<path d="M14.2383 27.3487V29.0385H19.512C19.7346 29.0385 19.9529 28.9486 20.1095 28.7908C20.2676 28.6341 20.3571 28.4157 20.3571 28.1936V18.4556H18.6648V27.3487H14.2383Z" fill="white"/>
</g>
<defs>
<clipPath id="clip0_1367_4967">
<rect width="30" height="30" fill="white"/>
</clipPath>
</defs>
</svg>
