<svg width="50" height="45" viewBox="0 0 50 45" fill="none" xmlns="http://www.w3.org/2000/svg">
<path fill-rule="evenodd" clip-rule="evenodd" d="M21.9323 1.1459C22.7944 0.406474 23.8928 0 25.0286 0C26.1645 0 27.2628 0.406474 28.125 1.1459L43.193 14.0593L49.1075 18.7918C49.3514 18.987 49.5545 19.2284 49.7051 19.502C49.8558 19.7757 49.951 20.0764 49.9855 20.3869C50.0199 20.6974 49.9929 21.0116 49.9059 21.3116C49.8189 21.6117 49.6737 21.8916 49.4785 22.1355C49.2833 22.3794 49.042 22.5825 48.7683 22.7332C48.4946 22.8838 48.194 22.9791 47.8835 23.0135C47.573 23.048 47.2588 23.0209 46.9587 22.934C46.6587 22.847 46.3787 22.7017 46.1348 22.5065L44.0539 20.8418V39.6745C44.0539 40.9359 43.5528 42.1457 42.6608 43.0377C41.7688 43.9297 40.559 44.4308 39.2976 44.4308H29.7849V32.54C29.7849 31.2785 29.2838 30.0687 28.3918 29.1768C27.4999 28.2848 26.2901 27.7837 25.0286 27.7837C23.7672 27.7837 22.5574 28.2848 21.6654 29.1768C20.7734 30.0687 20.2723 31.2785 20.2723 32.54V44.4308H10.7597C9.49821 44.4308 8.28842 43.9297 7.39644 43.0377C6.50446 42.1457 6.00335 40.9359 6.00335 39.6745V20.8394L3.92246 22.5042C3.68021 22.711 3.39886 22.8671 3.09513 22.9631C2.7914 23.0592 2.47146 23.0932 2.15432 23.0632C1.83718 23.0332 1.5293 22.9399 1.24895 22.7886C0.968592 22.6373 0.721484 22.4313 0.52229 22.1827C0.323096 21.9341 0.175876 21.648 0.0893689 21.3414C0.00286159 21.0349 -0.0211697 20.714 0.0187012 20.398C0.0585721 20.0819 0.161533 19.7771 0.321471 19.5016C0.48141 19.2261 0.695067 18.9856 0.949759 18.7942L6.86424 14.0617L21.9323 1.1459Z" fill="white"/>
</svg>
