<svg width="326" height="88" viewBox="0 0 326 88" fill="none" xmlns="http://www.w3.org/2000/svg">
<path fill-rule="evenodd" clip-rule="evenodd" d="M106.661 22.7708C104.456 13.4013 87.8982 22.4641 84.9861 10.2327C80.077 21.8508 91.8504 25.6327 102.958 25.2239C103.957 24.2699 105.205 23.4181 106.661 22.7708Z" fill="#1858A6"/>
<path fill-rule="evenodd" clip-rule="evenodd" d="M100.005 30.8457C97.301 31.3227 94.2641 29.7214 93.2656 29.5851C88.8558 28.9718 84.5707 30.3687 83.5723 32.413C84.2379 25.9395 96.0946 23.1457 102.959 25.1899C101.212 26.7913 100.13 28.7674 100.005 30.8457Z" fill="#FDCA10"/>
<path fill-rule="evenodd" clip-rule="evenodd" d="M76.1259 80.2144C77.0828 79.9078 78.0396 79.9078 78.8717 80.1462C80.1614 79.3626 81.3262 78.579 82.3663 77.7613C81.659 77.1139 81.3262 76.2622 81.7006 75.0697C83.1151 70.6745 92.9333 66.075 96.8439 60.2148C104.832 60.4873 111.155 59.2608 116.189 56.7736C120.224 58.2727 124.717 59.0223 128.878 58.6475C134.827 58.1024 136.616 62.9745 133.828 67.6422C130.375 73.4343 123.969 77.5909 118.727 77.0799C118.019 77.0117 117.063 76.8414 116.064 76.6029C114.608 77.4547 112.944 78.5449 111.363 79.7715C111.571 80.3848 111.613 81.0321 111.363 81.7135C110.614 83.5533 108.243 87.9485 106.496 87.5056C104.748 87.0626 103.958 83.5874 104.665 81.7476C105.414 79.9078 107.12 77.148 108.867 77.625C108.992 77.6591 109.117 77.6931 109.241 77.7272C109.782 76.637 110.448 75.5126 111.072 74.4905C110.697 74.1498 110.406 73.775 110.323 73.3321C109.782 71.0153 112.486 69.3798 114.442 66.3475C116.813 62.736 114.733 62.225 112.486 64.8144C106.953 71.1515 101.836 78.7153 90.7699 79.3286C89.7715 79.3967 88.565 79.3967 87.3586 79.2945C85.6113 79.8396 83.3647 80.6914 81.0766 81.5091C81.1598 81.6113 81.243 81.7476 81.2846 81.8839C81.9919 83.2808 78.7469 84.8821 76.5836 85.6317C74.3786 86.3472 70.0936 85.9724 69.4279 84.5755C68.7623 83.2467 73.921 80.964 76.1259 80.2144ZM153.714 39.4656C160.745 39.4656 166.445 44.1333 166.445 49.8913C166.445 55.6493 160.745 60.317 153.714 60.317C148.972 60.317 144.853 58.2046 142.648 55.036C141.109 55.2404 139.278 54.8997 138.28 54.4227C136.449 54.8657 134.411 55.1723 132.331 55.4108C127.422 61.9524 102.003 53.2302 104.665 40.6922C110.198 45.0532 118.852 43.5541 120.807 42.9068C124.967 48.0174 132.039 46.1094 133.038 50.7431C134.785 51.0838 136.616 51.2541 138.488 51.3223C138.904 50.8453 139.445 50.4024 140.152 50.0957C140.402 49.9935 140.693 49.8913 140.984 49.8232C140.984 48.9714 141.109 48.1878 141.358 47.4041C141.275 47.3701 141.192 47.3019 141.109 47.2338C140.443 46.7568 140.027 46.0754 139.819 45.428C138.737 45.1554 137.614 44.917 136.449 44.6785C131.956 48.4944 124.01 44.5081 122.221 42.3616C125.133 41.2714 129.71 37.8983 130.043 36.1607C132.164 35.8882 139.153 36.9103 138.321 40.4196C139.112 40.9988 140.152 41.7143 141.192 42.5661C141.899 42.4979 142.814 42.6001 143.813 42.8046L144.312 42.9408C146.559 40.8284 149.928 39.4656 153.714 39.4656ZM153.631 47.5404C155.254 47.5404 156.585 48.6307 156.585 49.9594C156.585 50.3001 156.502 50.6409 156.335 50.9475C156.71 51.3563 157.084 51.8674 157.334 52.4125C158.332 54.4568 158.166 56.501 156.46 57.8298C160.662 56.8418 163.782 53.6732 163.782 49.8913C163.782 47.336 162.368 45.0532 160.121 43.5541C160.079 43.5541 160.079 43.5541 160.079 43.52C158.873 42.7705 157.334 42.1231 155.836 42.3616C152.757 42.8727 151.634 44.8147 152.3 46.5864C152.425 46.9612 152.633 47.3019 152.882 47.6086C153.132 47.5745 153.381 47.5404 153.631 47.5404ZM154.63 52.2422C154.297 52.3444 153.964 52.3785 153.631 52.3785C152.009 52.3785 150.677 51.2882 150.677 49.9594C150.677 49.5165 150.844 49.1077 151.093 48.7329C150.677 48.29 150.344 47.7789 150.053 47.2338C149.138 45.3258 149.471 43.2815 151.135 41.9528C149.471 42.3276 147.973 43.0431 146.767 43.997C147.557 45.0873 146.85 46.8931 146.184 47.5063C145.519 48.1196 144.603 48.2559 143.938 48.1878C143.813 48.7329 143.73 49.278 143.73 49.8913C144.562 50.0957 145.311 50.6068 145.519 50.9816C146.392 52.3785 146.059 53.4687 145.144 54.1842C145.893 55.2064 146.933 56.0922 148.14 56.7736C149.429 57.2506 150.844 57.3869 152.217 57.0803C154.713 56.5011 155.503 55.2745 155.254 53.6732C155.129 53.128 154.921 52.6851 154.63 52.2422ZM104.915 48.1196C101.462 49.9594 99.2568 52.14 97.9672 54.1842C96.0118 57.3188 97.0103 58.8179 102.127 58.7157C107.12 58.6135 111.072 57.6595 114.525 56.0581C110.073 54.1502 106.662 51.4926 104.915 48.1196ZM112.445 19.7386C121.056 18.5802 129.044 22.6346 130.292 28.8014C131.54 34.9683 125.591 40.9307 116.979 42.1231C108.368 43.2815 100.38 39.2271 99.132 33.0603C97.884 26.8935 103.833 20.931 112.445 19.7386ZM102.335 34.5594C103.251 36.3652 105.164 38.2731 107.619 38.6479C109.824 38.9886 112.653 37.728 115.066 37.5576C117.437 37.3873 119.892 38.3413 121.972 37.7621C124.509 37.0806 126.382 34.5594 126.964 32.6855C127.463 31.0842 127.172 29.9258 124.01 30.8116C118.976 32.2767 112.029 32.924 105.414 31.9359C102.377 31.493 101.379 32.6855 102.335 34.5594Z" fill="#18A64D"/>
<path fill-rule="evenodd" clip-rule="evenodd" d="M84.9868 38.4094H94.4722C95.845 38.4094 96.6771 39.3293 96.3027 40.4537L94.7634 45.2236C94.389 46.3479 92.9745 47.2679 91.6016 47.2679H82.1163C80.7434 47.2679 79.9113 46.3479 80.2858 45.2236L81.825 40.4537C82.1995 39.3293 83.6139 38.4094 84.9868 38.4094ZM30.6542 38.5457H40.1395C41.5124 38.5457 42.3444 39.4656 41.97 40.59L40.4307 45.3599C40.0563 46.4842 38.6418 47.4041 37.2689 47.4041H27.7836C26.4107 47.4041 25.5787 46.4842 25.9531 45.3599L27.4924 40.59C27.8668 39.4656 29.2813 38.5457 30.6542 38.5457ZM41.346 47.4382H50.8313C52.2042 47.4382 53.0362 48.3581 52.6618 49.4825L51.1225 54.2524C50.7481 55.3767 49.3336 56.2966 47.9607 56.2966H38.4754C37.1025 56.2966 36.2705 55.3767 36.6449 54.2524L38.1842 49.4825C38.5586 48.3581 39.9731 47.4382 41.346 47.4382ZM51.8714 56.467H61.3567C62.7296 56.467 63.5616 57.3869 63.1872 58.5112L61.6479 63.2812C61.2735 64.4055 59.859 65.3254 58.4861 65.3254H49.0008C47.6279 65.3254 46.7959 64.4055 47.1703 63.2812L48.7096 58.5112C49.084 57.3869 50.4985 56.467 51.8714 56.467ZM79.0377 56.3989H88.523C89.8959 56.3989 90.728 57.3188 90.3535 58.4431L88.8142 63.213C88.4398 64.3374 87.0253 65.2573 85.6525 65.2573H76.1671C74.7943 65.2573 73.9622 64.3374 74.3366 63.213L75.8759 58.4431C76.2503 57.3188 77.6648 56.3989 79.0377 56.3989ZM57.8205 38.4776H67.3058C68.6787 38.4776 69.5108 39.3975 69.1363 40.5218L67.597 45.2917C67.2226 46.4161 65.8081 47.336 64.4353 47.336H54.9499C53.5771 47.336 52.745 46.4161 53.1194 45.2917L54.6587 40.5218C55.0331 39.3975 56.4476 38.4776 57.8205 38.4776ZM68.5123 47.3701H77.9976C79.3705 47.3701 80.2026 48.29 79.8281 49.4143L78.2889 54.1842C77.9144 55.3086 76.5 56.2285 75.1271 56.2285H65.6417C64.2689 56.2285 63.4368 55.3086 63.8112 54.1842L65.3505 49.4143C65.7249 48.2559 67.1394 47.3701 68.5123 47.3701Z" fill="#EC6323"/>
<path fill-rule="evenodd" clip-rule="evenodd" d="M182.005 37.6941C181.838 37.6941 181.672 37.6941 181.506 37.6941C180.466 40.7605 179.425 43.8268 178.385 46.8591C178.177 47.5065 177.345 48.0516 176.555 48.0516C174.35 48.0516 172.145 48.0516 169.982 48.0516C169.191 48.0516 168.692 47.5065 168.942 46.8591C171.022 40.6582 173.143 34.4573 175.224 28.2564C175.432 27.6091 176.264 27.098 177.054 27.098C180.049 27.098 183.045 27.098 186.04 27.098C186.539 27.098 186.872 27.2684 187.039 27.6091C188.744 31.0503 190.45 34.4914 192.156 37.9666C192.322 37.9666 192.489 37.9666 192.613 37.9666C193.695 34.7299 194.818 31.4932 195.9 28.2564C196.108 27.6091 196.94 27.098 197.73 27.098C199.935 27.098 202.14 27.098 204.345 27.098C205.136 27.098 205.593 27.6432 205.385 28.2564C203.305 34.4573 201.183 40.6582 199.103 46.8591C198.895 47.5065 198.063 48.0516 197.273 48.0516C194.361 48.0516 191.407 48.0516 188.495 48.0516C188.037 48.0516 187.663 47.8813 187.496 47.5746C185.666 44.2698 183.835 40.9649 182.005 37.6941ZM210.502 27.098C212.707 27.098 214.912 27.098 217.117 27.098C217.908 27.098 218.365 27.6432 218.157 28.2564C216.077 34.4573 213.955 40.6582 211.875 46.8591C211.667 47.5065 210.835 48.0516 210.045 48.0516C207.84 48.0516 205.677 48.0516 203.472 48.0516C202.681 48.0516 202.224 47.5065 202.432 46.8591C204.512 40.6582 206.633 34.4573 208.713 28.2564C208.88 27.6091 209.712 27.098 210.502 27.098ZM228.142 37.6941C227.975 37.6941 227.809 37.6941 227.684 37.6941C226.644 40.7605 225.604 43.8268 224.564 46.8591C224.356 47.5065 223.524 48.0516 222.733 48.0516C220.529 48.0516 218.324 48.0516 216.119 48.0516C215.328 48.0516 214.871 47.5065 215.079 46.8591C217.2 40.6582 219.28 34.4573 221.361 28.2564C221.569 27.6091 222.401 27.098 223.191 27.098C226.186 27.098 229.182 27.098 232.136 27.098C232.635 27.098 232.968 27.2684 233.134 27.6091C234.84 31.0503 236.545 34.4914 238.251 37.9326C238.418 37.9326 238.584 37.9326 238.75 37.9326C239.832 34.6958 240.955 31.4591 242.037 28.2224C242.245 27.575 243.077 27.064 243.867 27.064C246.072 27.064 248.236 27.064 250.441 27.064C251.231 27.064 251.689 27.6091 251.481 28.2224C249.401 34.4233 247.279 40.6242 245.199 46.8251C244.991 47.4724 244.159 48.0176 243.368 48.0176C240.414 48.0176 237.502 48.0176 234.59 48.0176C234.091 48.0176 233.758 47.8472 233.592 47.5406C231.803 44.2698 230.014 40.9649 228.142 37.6941ZM270.784 32.7538C268.288 32.7538 265.75 32.7538 263.213 32.7538C262.422 32.7538 261.964 32.2087 262.173 31.5613C262.547 30.4711 262.921 29.3808 263.296 28.2564C263.504 27.6091 264.336 27.064 265.126 27.064C270.327 27.064 275.527 27.064 280.727 27.064C281.518 27.064 281.975 27.6091 281.767 28.2224C280.769 31.2206 279.729 34.2529 278.73 37.2512C278.356 38.3755 278.023 39.4658 277.482 40.5901C276.525 42.5321 274.82 44.372 272.573 45.6667C269.952 47.1658 266.915 47.8813 264.086 48.1198C262.172 48.2901 260.3 48.2901 258.47 48.1198C257.055 48.0176 255.724 47.745 254.518 47.3361C253.02 46.8251 251.772 46.0415 250.94 44.9512C250.191 43.9291 249.9 42.6344 249.983 41.2715C250.066 40.1131 250.482 38.9206 250.898 37.7282C251.106 37.0808 251.938 36.5697 252.729 36.5697C254.934 36.5697 257.139 36.5697 259.344 36.5697C259.718 36.5697 260.051 36.672 260.217 36.9105C260.425 37.1489 260.467 37.4215 260.342 37.7282C260.217 38.137 260.051 38.5459 259.926 38.9547C259.676 39.7383 259.676 40.5901 260.176 41.1693C260.675 41.7826 261.673 42.0211 262.672 42.0892C263.712 42.1574 264.835 42.0552 265.917 41.6804C266.707 41.4078 267.414 40.8967 267.872 40.3175C268.288 39.7724 268.538 39.2273 268.746 38.6481C269.411 36.7401 270.119 34.7299 270.784 32.7538ZM297.534 45.4622C293.957 45.4282 290.379 45.4282 286.801 45.4622C286.385 46.0755 285.927 46.6547 285.47 47.268C285.095 47.745 284.471 48.0857 283.847 48.0857C281.476 48.0857 279.105 48.0857 276.733 48.0857C276.234 48.0857 275.901 47.9153 275.735 47.5746C275.568 47.268 275.652 46.8591 275.943 46.4844C280.769 40.2835 285.636 34.0826 290.462 27.8817C290.837 27.4047 291.461 27.098 292.085 27.098C296.286 27.098 300.53 27.098 304.732 27.098C305.356 27.098 305.772 27.4047 305.813 27.8817C306.479 34.0826 307.103 40.2835 307.769 46.4844C307.81 46.8591 307.602 47.2339 307.228 47.5746C306.853 47.8813 306.354 48.0857 305.897 48.0857C303.525 48.0857 301.154 48.0857 298.783 48.0857C298.159 48.0857 297.742 47.7791 297.701 47.268C297.576 46.6547 297.534 46.0415 297.534 45.4622ZM290.545 40.3516C292.75 40.3516 294.997 40.3516 297.243 40.3516C297.077 37.8644 296.91 35.3773 296.786 32.856C296.536 32.856 296.286 32.856 296.037 32.856C294.206 35.3432 292.376 37.8644 290.545 40.3516Z" fill="#18A64D"/>
<path fill-rule="evenodd" clip-rule="evenodd" d="M195.233 59.567C192.653 59.567 189.658 59.567 187.078 59.567C186.288 59.567 185.83 59.0219 186.038 58.4086C186.413 57.2843 186.787 56.194 187.162 55.0697C187.37 54.4223 188.202 53.8772 188.992 53.8772C197.271 53.8772 206.008 53.8772 214.286 53.8772C215.077 53.8772 215.534 54.4223 215.326 55.0697C214.952 56.1599 214.578 57.2843 214.203 58.4086C213.995 59.056 213.163 59.567 212.373 59.567C209.793 59.567 207.256 59.567 204.676 59.567C203.095 64.2688 201.514 68.9365 199.934 73.6383C199.726 74.2857 198.894 74.7967 198.103 74.7967C195.898 74.7967 193.693 74.7967 191.488 74.7967C190.698 74.7967 190.24 74.2516 190.448 73.6383C192.071 68.9706 193.652 64.2688 195.233 59.567ZM227.35 72.2414C223.772 72.2073 220.194 72.2414 216.616 72.2414C216.158 72.8547 215.742 73.4339 215.285 74.0472C214.91 74.5242 214.286 74.8649 213.662 74.8649C211.291 74.8649 208.92 74.8649 206.548 74.8649C206.049 74.8649 205.716 74.6945 205.55 74.3538C205.383 74.0131 205.425 73.6383 205.758 73.2635C210.584 67.0626 215.451 60.8617 220.277 54.6608C220.652 54.1838 221.276 53.8772 221.9 53.8772C226.101 53.8772 230.345 53.8772 234.547 53.8772C235.171 53.8772 235.587 54.1838 235.628 54.6608C236.294 60.8617 236.918 67.0626 237.584 73.2635C237.625 73.6383 237.417 74.0131 237.043 74.3538C236.668 74.6945 236.169 74.8649 235.712 74.8649C233.34 74.8649 230.969 74.8649 228.598 74.8649C227.974 74.8649 227.558 74.5582 227.516 74.0472C227.433 73.4339 227.391 72.8547 227.35 72.2414ZM258.385 60.4188C258.593 60.4188 258.801 60.4188 259.051 60.4188C261.172 58.4427 263.252 56.4666 265.374 54.4564C265.748 54.0816 266.289 53.8772 266.789 53.8772C269.243 53.8772 271.698 53.8772 274.152 53.8772C274.693 53.8772 275.067 54.0816 275.192 54.4905C275.317 54.8652 275.151 55.3082 274.776 55.683C271.573 58.613 268.411 61.5431 265.208 64.4732C266.414 67.3352 267.621 70.1631 268.869 73.025C269.035 73.3998 268.91 73.8427 268.494 74.2175C268.12 74.5923 267.579 74.8308 267.038 74.8308C264.584 74.8308 262.129 74.8308 259.675 74.8308C259.175 74.8308 258.801 74.6264 258.634 74.2516C257.844 72.3436 257.054 70.4357 256.305 68.5277C256.097 68.5277 255.889 68.5277 255.681 68.5277C253.601 70.4357 251.562 72.3436 249.482 74.2857C249.108 74.6264 248.567 74.8649 248.067 74.8649C245.613 74.8649 243.158 74.8649 240.704 74.8649C240.163 74.8649 239.789 74.6604 239.664 74.2516C239.539 73.8768 239.705 73.4339 240.121 73.0591C243.242 70.1972 246.403 67.3352 249.565 64.5073C248.359 61.5772 247.152 58.6471 245.946 55.717C245.779 55.3422 245.946 54.8993 246.32 54.5245C246.695 54.1498 247.235 53.9113 247.776 53.9113C250.231 53.9113 252.727 53.9113 255.181 53.9113C255.722 53.9113 256.097 54.1157 256.222 54.4905C256.929 56.4666 257.678 58.4427 258.385 60.4188ZM279.935 53.8772C282.14 53.8772 284.345 53.8772 286.55 53.8772C287.34 53.8772 287.798 54.4223 287.59 55.0697C285.51 61.2706 283.388 67.4715 281.308 73.6724C281.1 74.3197 280.268 74.8308 279.477 74.8308C277.272 74.8308 275.067 74.8308 272.904 74.8308C272.114 74.8308 271.614 74.2857 271.864 73.6724C273.944 67.4715 276.066 61.2706 278.146 55.0697C278.354 54.4223 279.144 53.8772 279.935 53.8772ZM225.852 59.6692C224.021 62.1564 222.191 64.6436 220.36 67.1308C222.607 67.1308 224.812 67.1308 227.058 67.1308C226.892 64.6436 226.725 62.1564 226.601 59.6692C226.351 59.6692 226.101 59.6692 225.852 59.6692Z" fill="#EC6323"/>
<path fill-rule="evenodd" clip-rule="evenodd" d="M108.576 33.5034C109.782 33.5034 110.781 34.287 110.781 35.3092C110.781 36.2972 109.824 37.1149 108.576 37.1149C107.37 37.1149 106.371 36.2972 106.371 35.3092C106.413 34.3211 107.411 33.5034 108.576 33.5034ZM108.326 34.1848C108.784 34.1848 109.2 34.4915 109.2 34.9003C109.2 35.2751 108.826 35.5817 108.326 35.5817C107.869 35.5817 107.494 35.2751 107.494 34.9003C107.494 34.4915 107.869 34.1848 108.326 34.1848Z" fill="#18A64D"/>
<path fill-rule="evenodd" clip-rule="evenodd" d="M119.808 32.8557C121.015 32.8557 122.013 33.6734 122.013 34.6615C122.013 35.6495 121.057 36.4672 119.808 36.4672C118.602 36.4672 117.604 35.6495 117.604 34.6615C117.645 33.6734 118.644 32.8557 119.808 32.8557ZM119.6 33.5371C120.058 33.5371 120.432 33.8438 120.432 34.2526C120.432 34.6274 120.058 34.934 119.6 34.934C119.143 34.934 118.768 34.6274 118.768 34.2526C118.727 33.8438 119.101 33.5371 119.6 33.5371Z" fill="#18A64D"/>
</svg>
