<svg width="50" height="38" viewBox="0 0 50 38" fill="none" xmlns="http://www.w3.org/2000/svg">
<path d="M48.8269 10.9375H42.9802L41.3552 6.87501C39.6852 2.69825 35.6999 0 31.2009 0H18.7985C14.3004 0 10.3141 2.69825 8.64321 6.87501L7.01821 10.9375H1.1725C0.409802 10.9375 -0.149769 11.6543 0.0357777 12.3936L0.621716 14.7373C0.751599 15.2588 1.22035 15.625 1.75844 15.625H3.7184C2.40687 16.7705 1.56215 18.4356 1.56215 20.3125V25C1.56215 26.5743 2.16371 27.9952 3.12465 29.0948V34.375C3.12465 36.1006 4.52407 37.5 6.24965 37.5H9.37466C11.1002 37.5 12.4997 36.1006 12.4997 34.375V31.25H37.4997V34.375C37.4997 36.1006 38.8991 37.5 40.6247 37.5H43.7497C45.4753 37.5 46.8747 36.1006 46.8747 34.375V29.0948C47.8356 27.9961 48.4372 26.5752 48.4372 25V20.3125C48.4372 18.4356 47.5925 16.7705 46.2819 15.625H48.2419C48.78 15.625 49.2487 15.2588 49.3786 14.7373L49.9646 12.3936C50.1491 11.6543 49.5896 10.9375 48.8269 10.9375ZM14.446 9.1963C15.1579 7.417 16.8815 6.25001 18.7985 6.25001H31.2009C33.1179 6.25001 34.8415 7.417 35.5534 9.1963L37.4997 14.0625H12.4997L14.446 9.1963ZM9.37466 24.9805C7.49965 24.9805 6.24965 23.7344 6.24965 21.8653C6.24965 19.9961 7.49965 18.75 9.37466 18.75C11.2497 18.75 14.0622 21.5537 14.0622 23.4229C14.0622 25.292 11.2497 24.9805 9.37466 24.9805ZM40.6247 24.9805C38.7497 24.9805 35.9372 25.292 35.9372 23.4229C35.9372 21.5537 38.7497 18.75 40.6247 18.75C42.4997 18.75 43.7497 19.9961 43.7497 21.8653C43.7497 23.7344 42.4997 24.9805 40.6247 24.9805Z" fill="white"/>
</svg>
