<svg width="38" height="37" viewBox="0 0 38 37" fill="none" xmlns="http://www.w3.org/2000/svg">
              <mask id="path-1-inside-1_297_144" fill="white">
                <path d="M2.51735 3.55606C2.35113 3.74511 2.19301 3.94237 2.04706 4.15196C0.725396 5.33963 -0.320586 7.94923 0.295651 11.1629C2.93088 25.0863 14.5015 35.6931 28.4317 36.9589C28.7318 36.9877 29.0318 37 29.3277 37C30.9291 37 32.4373 36.6014 33.6414 35.8534C34.2211 35.5123 34.7401 35.089 35.1779 34.5959L36.3739 33.2561C38.7051 30.6424 38.5064 26.5904 35.928 24.2233L33.909 22.3739C32.7414 21.3013 31.2373 20.7136 29.6764 20.7136C27.8966 20.7136 26.1898 21.4821 24.9979 22.8178L23.8019 24.1575C23.3356 24.6794 22.9586 25.2712 22.687 25.9123C17.9152 23.8863 14.0029 20.2534 11.5866 15.6177C12.4623 15.2561 13.2529 14.6972 13.8934 13.9821L15.0894 12.6424C16.2205 11.3766 16.7962 9.7369 16.7111 8.03142C16.6259 6.32593 15.8921 4.75607 14.6434 3.60949L12.6245 1.76017C11.4609 0.695782 9.96085 0.108109 8.39593 0.108109C6.61614 0.108109 4.90932 0.876604 3.71334 2.21222L2.51735 3.55606ZM4.91338 3.3136C5.80125 2.31907 7.06615 1.75195 8.39187 1.75195C9.55543 1.75195 10.6703 2.18757 11.5339 2.98072L13.5529 4.83004C14.4813 5.68073 15.0286 6.84786 15.0894 8.11772C15.1543 9.38348 14.7245 10.604 13.8853 11.5451L12.6893 12.8849C12.1136 13.5301 11.3839 13.9986 10.569 14.2492L10.2041 14.3602C9.97706 14.4301 9.79057 14.5986 9.69327 14.8205C9.60002 15.0424 9.60408 15.2972 9.70949 15.515L9.87976 15.8602C12.5272 21.2479 17.0273 25.4356 22.5491 27.6465L22.8653 27.7698C23.0721 27.852 23.3032 27.8438 23.5059 27.7493C23.7086 27.6548 23.8627 27.4781 23.9316 27.2644L24.033 26.9356C24.2397 26.315 24.5641 25.752 24.9979 25.263L26.1938 23.9232C27.0817 22.9287 28.3507 22.3575 29.6723 22.3575C30.8359 22.3575 31.9508 22.7931 32.8143 23.5863L34.8333 25.4356C36.751 27.1904 36.8969 30.2027 35.1658 32.1466L33.9698 33.4863C33.6414 33.852 33.2562 34.1685 32.8062 34.4356C31.6589 35.1507 30.1588 35.463 28.5736 35.3192C15.361 34.1151 4.38633 24.0548 1.8849 10.8465C1.35785 8.07663 2.35113 6.04237 3.1498 5.35196C3.17413 5.33141 3.19845 5.30675 3.22278 5.27799L3.27954 5.21634C3.30386 5.18758 3.32413 5.16292 3.3444 5.13415C3.45792 4.96566 3.5836 4.80538 3.71739 4.65333L4.91338 3.3136Z" />
              </mask>
              <path d="M2.51735 3.55606C2.35113 3.74511 2.19301 3.94237 2.04706 4.15196C0.725396 5.33963 -0.320586 7.94923 0.295651 11.1629C2.93088 25.0863 14.5015 35.6931 28.4317 36.9589C28.7318 36.9877 29.0318 37 29.3277 37C30.9291 37 32.4373 36.6014 33.6414 35.8534C34.2211 35.5123 34.7401 35.089 35.1779 34.5959L36.3739 33.2561C38.7051 30.6424 38.5064 26.5904 35.928 24.2233L33.909 22.3739C32.7414 21.3013 31.2373 20.7136 29.6764 20.7136C27.8966 20.7136 26.1898 21.4821 24.9979 22.8178L23.8019 24.1575C23.3356 24.6794 22.9586 25.2712 22.687 25.9123C17.9152 23.8863 14.0029 20.2534 11.5866 15.6177C12.4623 15.2561 13.2529 14.6972 13.8934 13.9821L15.0894 12.6424C16.2205 11.3766 16.7962 9.7369 16.7111 8.03142C16.6259 6.32593 15.8921 4.75607 14.6434 3.60949L12.6245 1.76017C11.4609 0.695782 9.96085 0.108109 8.39593 0.108109C6.61614 0.108109 4.90932 0.876604 3.71334 2.21222L2.51735 3.55606ZM4.91338 3.3136C5.80125 2.31907 7.06615 1.75195 8.39187 1.75195C9.55543 1.75195 10.6703 2.18757 11.5339 2.98072L13.5529 4.83004C14.4813 5.68073 15.0286 6.84786 15.0894 8.11772C15.1543 9.38348 14.7245 10.604 13.8853 11.5451L12.6893 12.8849C12.1136 13.5301 11.3839 13.9986 10.569 14.2492L10.2041 14.3602C9.97706 14.4301 9.79057 14.5986 9.69327 14.8205C9.60002 15.0424 9.60408 15.2972 9.70949 15.515L9.87976 15.8602C12.5272 21.2479 17.0273 25.4356 22.5491 27.6465L22.8653 27.7698C23.0721 27.852 23.3032 27.8438 23.5059 27.7493C23.7086 27.6548 23.8627 27.4781 23.9316 27.2644L24.033 26.9356C24.2397 26.315 24.5641 25.752 24.9979 25.263L26.1938 23.9232C27.0817 22.9287 28.3507 22.3575 29.6723 22.3575C30.8359 22.3575 31.9508 22.7931 32.8143 23.5863L34.8333 25.4356C36.751 27.1904 36.8969 30.2027 35.1658 32.1466L33.9698 33.4863C33.6414 33.852 33.2562 34.1685 32.8062 34.4356C31.6589 35.1507 30.1588 35.463 28.5736 35.3192C15.361 34.1151 4.38633 24.0548 1.8849 10.8465C1.35785 8.07663 2.35113 6.04237 3.1498 5.35196C3.17413 5.33141 3.19845 5.30675 3.22278 5.27799L3.27954 5.21634C3.30386 5.18758 3.32413 5.16292 3.3444 5.13415C3.45792 4.96566 3.5836 4.80538 3.71739 4.65333L4.91338 3.3136Z" fill="#EC6323" />
              <path d="M2.51735 3.55606L0.276333 1.56161L0.270352 1.56833L0.264412 1.57509L2.51735 3.55606ZM2.04706 4.15196L4.05225 6.38337L4.31053 6.15128L4.50896 5.86633L2.04706 4.15196ZM0.295651 11.1629L3.24333 10.605L3.24197 10.598L0.295651 11.1629ZM28.4317 36.9589L28.7181 33.9726L28.7107 33.9719L28.7032 33.9712L28.4317 36.9589ZM33.6414 35.8534L32.1201 33.2677L32.089 33.286L32.0584 33.305L33.6414 35.8534ZM35.1779 34.5959L32.9399 32.598L32.9346 32.6041L35.1779 34.5959ZM36.3739 33.2561L38.6119 35.254L38.6128 35.253L36.3739 33.2561ZM35.928 24.2233L37.9568 22.0133L37.9543 22.011L35.928 24.2233ZM33.909 22.3739L31.8794 24.5832L31.8826 24.5862L33.909 22.3739ZM24.9979 22.8178L27.2358 24.8156L27.2362 24.8153L24.9979 22.8178ZM23.8019 24.1575L26.0392 26.1561L26.0398 26.1554L23.8019 24.1575ZM22.687 25.9123L21.5145 28.6737L24.278 29.847L25.4492 27.0827L22.687 25.9123ZM11.5866 15.6177L10.4415 12.8449L7.41059 14.0966L8.92628 17.0044L11.5866 15.6177ZM13.8934 13.9821L16.128 15.9838L16.1314 15.98L13.8934 13.9821ZM15.0894 12.6424L12.8524 10.6434L12.8514 10.6445L15.0894 12.6424ZM14.6434 3.60949L16.6725 1.39974L16.6698 1.39725L14.6434 3.60949ZM12.6245 1.76017L14.6508 -0.452068L14.6493 -0.453381L12.6245 1.76017ZM3.71334 2.21222L1.4784 0.21094L1.47232 0.217771L3.71334 2.21222ZM4.91338 3.3136L2.67545 1.31567L2.6754 1.31574L4.91338 3.3136ZM11.5339 2.98072L9.50451 5.19018L9.50755 5.19296L11.5339 2.98072ZM13.5529 4.83004L15.5796 2.61816L15.5792 2.6178L13.5529 4.83004ZM15.0894 8.11772L12.0928 8.26123L12.0933 8.27126L15.0894 8.11772ZM13.8853 11.5451L16.1233 13.543L16.1244 13.5418L13.8853 11.5451ZM12.6893 12.8849L10.4513 10.887L10.4508 10.8876L12.6893 12.8849ZM10.569 14.2492L11.4418 17.1195L11.4511 17.1166L10.569 14.2492ZM10.2041 14.3602L9.33126 11.49L9.32177 11.4929L10.2041 14.3602ZM9.69327 14.8205L6.94576 13.6158L6.93647 13.637L6.9275 13.6584L9.69327 14.8205ZM9.70949 15.515L7.0091 16.8219L7.014 16.832L7.01899 16.8421L9.70949 15.515ZM9.87976 15.8602L12.5723 14.5372L12.5703 14.5331L9.87976 15.8602ZM22.5491 27.6465L21.434 30.4316L21.4467 30.4367L21.4594 30.4416L22.5491 27.6465ZM22.8653 27.7698L23.9735 24.982L23.9643 24.9784L23.9551 24.9748L22.8653 27.7698ZM23.9316 27.2644L26.7868 28.1852L26.7927 28.1667L26.7985 28.1482L23.9316 27.2644ZM24.033 26.9356L21.1868 25.9873L21.1761 26.0194L21.1661 26.0518L24.033 26.9356ZM24.9979 25.263L22.7599 23.2651L22.7536 23.2722L24.9979 25.263ZM26.1938 23.9232L23.9559 21.9253L23.9559 21.9254L26.1938 23.9232ZM32.8143 23.5863L30.785 25.7957L30.788 25.7985L32.8143 23.5863ZM34.8333 25.4356L32.807 27.6478L32.808 27.6488L34.8333 25.4356ZM35.1658 32.1466L37.4037 34.1444L37.4061 34.1418L35.1658 32.1466ZM33.9698 33.4863L36.2021 35.4905L36.2078 35.4841L33.9698 33.4863ZM32.8062 34.4356L31.2749 31.8559L31.247 31.8724L31.2194 31.8896L32.8062 34.4356ZM28.5736 35.3192L28.3014 38.3068L28.3025 38.3069L28.5736 35.3192ZM1.8849 10.8465L4.8325 10.2883L4.83202 10.2857L1.8849 10.8465ZM3.1498 5.35196L1.21389 3.06018L1.20083 3.07122L1.18789 3.0824L3.1498 5.35196ZM3.22278 5.27799L1.01582 3.24591L0.972895 3.29253L0.931979 3.34092L3.22278 5.27799ZM3.27954 5.21634L5.4865 7.24842L5.52942 7.2018L5.57034 7.15341L3.27954 5.21634ZM3.3444 5.13415L5.79672 6.86219L5.81485 6.83647L5.83243 6.81038L3.3444 5.13415ZM3.71739 4.65333L1.47941 2.65547L1.47223 2.66351L1.4651 2.67161L3.71739 4.65333ZM0.264412 1.57509C0.0381005 1.83247 -0.192846 2.11881 -0.41483 2.43758L4.50896 5.86633C4.57887 5.76593 4.66415 5.65775 4.77029 5.53704L0.264412 1.57509ZM0.0418719 1.92054C-2.19898 3.93422 -3.42755 7.67646 -2.65067 11.7279L3.24197 10.598C2.78637 8.222 3.64978 6.74504 4.05225 6.38337L0.0418719 1.92054ZM-2.65202 11.7208C0.227906 26.937 12.8714 38.5574 28.1603 39.9466L28.7032 33.9712C16.1317 32.8289 5.63385 23.2355 3.24332 10.605L-2.65202 11.7208ZM28.1454 39.9452C28.5528 39.9843 28.9492 40 29.3277 40V34C29.1143 34 28.9107 33.9911 28.7181 33.9726L28.1454 39.9452ZM29.3277 40C31.4092 40 33.4818 39.4842 35.2244 38.4018L32.0584 33.305C31.3927 33.7185 30.4491 34 29.3277 34V40ZM35.1627 38.4391C36.0028 37.9448 36.7678 37.3237 37.4213 36.5877L32.9346 32.6041C32.7124 32.8543 32.4395 33.0798 32.1201 33.2677L35.1627 38.4391ZM37.4159 36.5937L38.6119 35.254L34.1359 31.2583L32.9399 32.598L37.4159 36.5937ZM38.6128 35.253C42.0331 31.4181 41.7461 25.4921 37.9568 22.0133L33.8991 26.4332C35.2667 27.6887 35.3771 29.8667 34.135 31.2593L38.6128 35.253ZM37.9543 22.011L35.9353 20.1617L31.8826 24.5862L33.9016 26.4355L37.9543 22.011ZM35.9385 20.1646C34.2235 18.5892 31.9973 17.7136 29.6764 17.7136V23.7136C30.4772 23.7136 31.2592 24.0134 31.8794 24.5832L35.9385 20.1646ZM29.6764 17.7136C27.0345 17.7136 24.5158 18.8523 22.7596 20.8203L27.2362 24.8153C27.8637 24.112 28.7587 23.7136 29.6764 23.7136V17.7136ZM22.7599 20.8199L21.5639 22.1596L26.0398 26.1554L27.2358 24.8156L22.7599 20.8199ZM21.5645 22.1589C20.8828 22.922 20.3269 23.7927 19.9247 24.7419L25.4492 27.0827C25.5903 26.7497 25.7884 26.4368 26.0392 26.1561L21.5645 22.1589ZM23.8594 23.1509C19.7358 21.4001 16.3456 18.2574 14.2469 14.2311L8.92628 17.0044C11.6602 22.2493 16.0946 26.3725 21.5145 28.6737L23.8594 23.1509ZM12.7317 18.3906C14.0255 17.8563 15.188 17.0332 16.128 15.9838L11.6589 11.9804C11.3177 12.3612 10.8991 12.6559 10.4415 12.8449L12.7317 18.3906ZM16.1314 15.98L17.3274 14.6403L12.8514 10.6445L11.6554 11.9843L16.1314 15.98ZM17.3264 14.6414C18.9881 12.7819 19.8315 10.3683 19.7073 7.88184L13.7148 8.18099C13.761 9.10546 13.4529 9.9714 12.8524 10.6434L17.3264 14.6414ZM19.7073 7.88184C19.5833 5.39613 18.5067 3.08399 16.6725 1.39974L12.6144 5.81924C13.2775 6.42815 13.6686 7.25574 13.7148 8.18099L19.7073 7.88184ZM16.6698 1.39725L14.6508 -0.452068L10.5981 3.9724L12.6171 5.82172L16.6698 1.39725ZM14.6493 -0.453381C12.9399 -2.01714 10.72 -2.89189 8.39593 -2.89189V3.10811C9.20174 3.10811 9.9819 3.40871 10.5996 3.97372L14.6493 -0.453381ZM8.39593 -2.89189C5.75316 -2.89189 3.23685 -1.7528 1.47841 0.21095L5.94826 4.2135C6.58179 3.506 7.47912 3.10811 8.39593 3.10811V-2.89189ZM1.47232 0.217771L0.276333 1.56161L4.75837 5.55052L5.95435 4.20668L1.47232 0.217771ZM7.1513 5.31152C7.47246 4.95178 7.92451 4.75195 8.39187 4.75195V-1.24805C6.20779 -1.24805 4.13003 -0.313636 2.67545 1.31567L7.1513 5.31152ZM8.39187 4.75195C8.7985 4.75195 9.19058 4.90183 9.50452 5.19018L13.5632 0.771262C12.1501 -0.526694 10.3124 -1.24805 8.39187 -1.24805V4.75195ZM9.50755 5.19296L11.5265 7.04228L15.5792 2.6178L13.5602 0.768483L9.50755 5.19296ZM11.5261 7.04192C11.8682 7.35536 12.0697 7.77778 12.0928 8.26123L18.086 7.97422C17.9875 5.91793 17.0943 4.00609 15.5796 2.61816L11.5261 7.04192ZM12.0933 8.27126C12.1179 8.75072 11.9586 9.19816 11.6463 9.54847L16.1244 13.5418C17.4904 12.0099 18.1906 10.0162 18.0855 7.96418L12.0933 8.27126ZM11.6473 9.54727L10.4513 10.887L14.9273 14.8827L16.1233 13.543L11.6473 9.54727ZM10.4508 10.8876C10.2363 11.128 9.97421 11.2935 9.68688 11.3819L11.4511 17.1166C12.7935 16.7037 13.991 15.9321 14.9278 14.8822L10.4508 10.8876ZM9.69615 11.379L9.33127 11.49L11.0769 17.2304L11.4418 17.1195L9.69615 11.379ZM9.32177 11.4929C8.23702 11.8267 7.3833 12.6179 6.94576 13.6158L12.4408 16.0251C12.1978 16.5792 11.7171 17.0334 11.0864 17.2275L9.32177 11.4929ZM6.9275 13.6584C6.5093 14.6536 6.51868 15.8085 7.0091 16.8219L12.4099 14.2081C12.6895 14.7859 12.6907 15.4312 12.459 15.9826L6.9275 13.6584ZM7.01899 16.8421L7.18926 17.1873L12.5703 14.5331L12.4 14.1879L7.01899 16.8421ZM7.18726 17.1832C10.1581 23.2292 15.2163 27.942 21.434 30.4316L23.6643 24.8615C18.8383 22.9292 14.8962 19.2666 12.5723 14.5372L7.18726 17.1832ZM21.4594 30.4416L21.7756 30.5649L23.9551 24.9748L23.6388 24.8515L21.4594 30.4416ZM21.7571 30.5576C22.7478 30.9514 23.8382 30.9045 24.7737 30.4682L22.2381 25.0303C22.7682 24.7832 23.3964 24.7526 23.9735 24.982L21.7571 30.5576ZM24.7737 30.4682C25.7472 30.0143 26.4668 29.1774 26.7868 28.1852L21.0764 26.3435C21.2586 25.7787 21.6701 25.2952 22.2381 25.0303L24.7737 30.4682ZM26.7985 28.1482L26.8998 27.8194L21.1661 26.0518L21.0647 26.3805L26.7985 28.1482ZM26.8791 27.8839C26.9584 27.6459 27.0787 27.438 27.2421 27.2537L22.7536 23.2722C22.0494 24.0661 21.521 24.9842 21.1868 25.9873L26.8791 27.8839ZM27.2358 27.2608L28.4318 25.9211L23.9559 21.9254L22.7599 23.2651L27.2358 27.2608ZM28.4318 25.9212C28.7562 25.5578 29.2139 25.3575 29.6723 25.3575V19.3575C27.4874 19.3575 25.4072 20.2997 23.9559 21.9253L28.4318 25.9212ZM29.6723 25.3575C30.079 25.3575 30.471 25.5074 30.785 25.7957L34.8437 21.3768C33.4305 20.0788 31.5928 19.3575 29.6723 19.3575V25.3575ZM30.788 25.7985L32.807 27.6478L36.8596 23.2233L34.8407 21.374L30.788 25.7985ZM32.808 27.6488C33.5071 28.2885 33.5723 29.425 32.9254 30.1514L37.4061 34.1418C40.2216 30.9804 39.9948 26.0922 36.8586 23.2224L32.808 27.6488ZM32.9278 30.1487L31.7318 31.4884L36.2078 35.4841L37.4037 34.1444L32.9278 30.1487ZM31.7375 31.4821C31.6182 31.6149 31.4713 31.7393 31.2749 31.8559L34.3375 37.0154C35.0412 36.5977 35.6645 36.0892 36.2021 35.4905L31.7375 31.4821ZM31.2194 31.8896C30.722 32.1996 29.9005 32.4272 28.8447 32.3314L28.3025 38.3069C30.4171 38.4988 32.5957 38.1017 34.393 36.9816L31.2194 31.8896ZM28.8459 32.3316C16.9914 31.2512 7.08915 22.204 4.8325 10.2883L-1.06271 11.4047C1.68352 25.9056 13.7306 36.9789 28.3014 38.3068L28.8459 32.3316ZM4.83202 10.2857C4.65972 9.38023 4.74804 8.66705 4.89373 8.18132C5.05989 7.62735 5.25442 7.49816 5.11172 7.62152L1.18789 3.0824C-0.567049 4.59945 -1.75037 7.79078 -1.06223 11.4073L4.83202 10.2857ZM5.08572 7.64374C5.25871 7.4976 5.40008 7.34928 5.51358 7.21506L0.931979 3.34092C0.996831 3.26422 1.08955 3.16522 1.21389 3.06018L5.08572 7.64374ZM5.42974 7.31006L5.4865 7.24842L1.07258 3.18427L1.01582 3.24591L5.42974 7.31006ZM5.57034 7.15341C5.60653 7.11062 5.69716 7.00349 5.79672 6.86219L0.892084 3.40611C0.951107 3.32235 1.0012 3.26454 0.988738 3.27927L5.57034 7.15341ZM5.83243 6.81038C5.86563 6.76109 5.91044 6.70237 5.96968 6.63504L1.4651 2.67161C1.25677 2.90839 1.05021 3.17022 0.856382 3.45792L5.83243 6.81038ZM5.95537 6.65119L7.15136 5.31146L2.6754 1.31574L1.47941 2.65547L5.95537 6.65119Z" fill="#EC6323" mask="url(#path-1-inside-1_297_144)" />
            </svg>